<mxfile host="Electron" modified="2023-06-08T09:02:07.487Z" agent="Mozilla/5.0 (Windows NT 10.0; Win64; x64) AppleWebKit/537.36 (KHTML, like Gecko) draw.io/21.2.8 Chrome/112.0.5615.165 Electron/24.2.0 Safari/537.36" etag="x6A0eMqCEyPOvkguB1H0" version="21.2.8" type="device">
  <diagram name="페이지-1" id="eF9I_A2l840-qIare7JL">
    <mxGraphModel dx="1147" dy="675" grid="1" gridSize="10" guides="1" tooltips="1" connect="1" arrows="1" fold="1" page="1" pageScale="1" pageWidth="827" pageHeight="1169" math="0" shadow="0">
      <root>
        <mxCell id="0" />
        <mxCell id="1" parent="0" />
        <mxCell id="8HiVLzLvZXMp7pnqKMNH-1" value="int numbers [3];" style="rounded=1;whiteSpace=wrap;html=1;labelBackgroundColor=none;fillColor=#F2CC8F;strokeColor=#E07A5F;fontColor=#393C56;" vertex="1" parent="1">
          <mxGeometry x="40" y="50" width="120" height="60" as="geometry" />
        </mxCell>
        <mxCell id="8HiVLzLvZXMp7pnqKMNH-2" value="int numbers [0];" style="rounded=1;whiteSpace=wrap;html=1;labelBackgroundColor=none;fillColor=#F2CC8F;strokeColor=#E07A5F;fontColor=#393C56;" vertex="1" parent="1">
          <mxGeometry x="40" y="240" width="120" height="60" as="geometry" />
        </mxCell>
        <mxCell id="8HiVLzLvZXMp7pnqKMNH-3" value="int numbers [1];" style="rounded=1;whiteSpace=wrap;html=1;labelBackgroundColor=none;fillColor=#F2CC8F;strokeColor=#E07A5F;fontColor=#393C56;" vertex="1" parent="1">
          <mxGeometry x="200" y="240" width="120" height="60" as="geometry" />
        </mxCell>
        <mxCell id="8HiVLzLvZXMp7pnqKMNH-4" value="int numbers [2];" style="rounded=1;whiteSpace=wrap;html=1;labelBackgroundColor=none;fillColor=#F2CC8F;strokeColor=#E07A5F;fontColor=#393C56;" vertex="1" parent="1">
          <mxGeometry x="360" y="240" width="120" height="60" as="geometry" />
        </mxCell>
        <mxCell id="8HiVLzLvZXMp7pnqKMNH-6" style="edgeStyle=orthogonalEdgeStyle;rounded=0;orthogonalLoop=1;jettySize=auto;html=1;entryX=0.5;entryY=0;entryDx=0;entryDy=0;strokeColor=#E07A5F;fontColor=#393C56;fillColor=#F2CC8F;" edge="1" parent="1" source="8HiVLzLvZXMp7pnqKMNH-5" target="8HiVLzLvZXMp7pnqKMNH-2">
          <mxGeometry relative="1" as="geometry" />
        </mxCell>
        <mxCell id="8HiVLzLvZXMp7pnqKMNH-5" value="numbers" style="rounded=1;whiteSpace=wrap;html=1;labelBackgroundColor=none;fillColor=#F2CC8F;strokeColor=#E07A5F;fontColor=#393C56;" vertex="1" parent="1">
          <mxGeometry x="40" y="140" width="120" height="60" as="geometry" />
        </mxCell>
        <mxCell id="8HiVLzLvZXMp7pnqKMNH-7" value="선택정렬?" style="rounded=1;whiteSpace=wrap;html=1;labelBackgroundColor=none;fillColor=#F2CC8F;strokeColor=#E07A5F;fontColor=#393C56;" vertex="1" parent="1">
          <mxGeometry x="40" y="360" width="120" height="60" as="geometry" />
        </mxCell>
        <mxCell id="8HiVLzLvZXMp7pnqKMNH-8" value="루프를 돌아서 가장 작은 값을 찾아서 0번째 인덱스와 교환한다.&lt;br&gt;다음 루프에서 0번째 인덱스는 빼고 나머지 루프를 돈다.&lt;br&gt;또 가장 작은 값을 찾아서 1번째 인덱스와 교환한다.&lt;br&gt;다음 루프에서 0~1번째 인덱스는 빼고 나머지 루프를 돈다.&lt;br&gt;이하 반복하면&lt;br&gt;오름차순으로 값이 정렬된다." style="rounded=1;whiteSpace=wrap;html=1;labelBackgroundColor=none;fillColor=#F2CC8F;strokeColor=#E07A5F;fontColor=#393C56;" vertex="1" parent="1">
          <mxGeometry x="40" y="440" width="400" height="150" as="geometry" />
        </mxCell>
        <mxCell id="8HiVLzLvZXMp7pnqKMNH-10" value="&amp;nbsp;2 ,5 , 6 ,3, 1" style="rounded=1;whiteSpace=wrap;html=1;labelBackgroundColor=none;fillColor=#F2CC8F;strokeColor=#E07A5F;fontColor=#393C56;" vertex="1" parent="1">
          <mxGeometry x="40" y="640" width="120" height="60" as="geometry" />
        </mxCell>
        <mxCell id="8HiVLzLvZXMp7pnqKMNH-11" value="삽입 정렬은 메인 루프를 돌아서 정렬할 요소를 선택한다.&lt;br&gt;정렬할 요소를 이미 정렬이 끝난 배열 안에서&lt;br&gt;제자리를 찾아가도록 스왑한다." style="rounded=1;whiteSpace=wrap;html=1;labelBackgroundColor=none;fillColor=#F2CC8F;strokeColor=#E07A5F;fontColor=#393C56;" vertex="1" parent="1">
          <mxGeometry x="40" y="840" width="320" height="80" as="geometry" />
        </mxCell>
        <mxCell id="8HiVLzLvZXMp7pnqKMNH-12" value="삽입정렬" style="rounded=1;whiteSpace=wrap;html=1;labelBackgroundColor=none;fillColor=#F2CC8F;strokeColor=#E07A5F;fontColor=#393C56;" vertex="1" parent="1">
          <mxGeometry x="40" y="760" width="120" height="60" as="geometry" />
        </mxCell>
        <mxCell id="8HiVLzLvZXMp7pnqKMNH-13" value="&amp;nbsp;2 ,5 , 6 ,3, 1" style="rounded=1;whiteSpace=wrap;html=1;labelBackgroundColor=none;fillColor=#F2CC8F;strokeColor=#E07A5F;fontColor=#393C56;" vertex="1" parent="1">
          <mxGeometry x="40" y="960" width="120" height="60" as="geometry" />
        </mxCell>
        <mxCell id="8HiVLzLvZXMp7pnqKMNH-14" value="2차원 배열" style="rounded=1;whiteSpace=wrap;html=1;labelBackgroundColor=none;fillColor=#F2CC8F;strokeColor=#E07A5F;fontColor=#393C56;" vertex="1" parent="1">
          <mxGeometry x="400" y="700" width="120" height="40" as="geometry" />
        </mxCell>
        <mxCell id="8HiVLzLvZXMp7pnqKMNH-19" value="" style="group" vertex="1" connectable="0" parent="1">
          <mxGeometry x="400" y="860" width="190" height="60" as="geometry" />
        </mxCell>
        <mxCell id="8HiVLzLvZXMp7pnqKMNH-18" value="" style="rounded=0;whiteSpace=wrap;html=1;strokeColor=#E07A5F;fontColor=#393C56;fillColor=#F2CC8F;" vertex="1" parent="8HiVLzLvZXMp7pnqKMNH-19">
          <mxGeometry width="190" height="60" as="geometry" />
        </mxCell>
        <mxCell id="8HiVLzLvZXMp7pnqKMNH-15" value="1" style="rounded=1;whiteSpace=wrap;html=1;labelBackgroundColor=none;fillColor=#F2CC8F;strokeColor=#E07A5F;fontColor=#393C56;" vertex="1" parent="8HiVLzLvZXMp7pnqKMNH-19">
          <mxGeometry x="14" y="15" width="40" height="30" as="geometry" />
        </mxCell>
        <mxCell id="8HiVLzLvZXMp7pnqKMNH-16" value="2" style="rounded=1;whiteSpace=wrap;html=1;labelBackgroundColor=none;fillColor=#F2CC8F;strokeColor=#E07A5F;fontColor=#393C56;" vertex="1" parent="8HiVLzLvZXMp7pnqKMNH-19">
          <mxGeometry x="74" y="15" width="40" height="30" as="geometry" />
        </mxCell>
        <mxCell id="8HiVLzLvZXMp7pnqKMNH-17" value="3" style="rounded=1;whiteSpace=wrap;html=1;labelBackgroundColor=none;fillColor=#F2CC8F;strokeColor=#E07A5F;fontColor=#393C56;" vertex="1" parent="8HiVLzLvZXMp7pnqKMNH-19">
          <mxGeometry x="134" y="15" width="40" height="30" as="geometry" />
        </mxCell>
        <mxCell id="8HiVLzLvZXMp7pnqKMNH-20" value="" style="group" vertex="1" connectable="0" parent="1">
          <mxGeometry x="827" y="860" width="190" height="60" as="geometry" />
        </mxCell>
        <mxCell id="8HiVLzLvZXMp7pnqKMNH-21" value="" style="rounded=0;whiteSpace=wrap;html=1;strokeColor=#E07A5F;fontColor=#393C56;fillColor=#F2CC8F;" vertex="1" parent="8HiVLzLvZXMp7pnqKMNH-20">
          <mxGeometry width="190" height="60" as="geometry" />
        </mxCell>
        <mxCell id="8HiVLzLvZXMp7pnqKMNH-22" value="1" style="rounded=1;whiteSpace=wrap;html=1;labelBackgroundColor=none;fillColor=#F2CC8F;strokeColor=#E07A5F;fontColor=#393C56;" vertex="1" parent="8HiVLzLvZXMp7pnqKMNH-20">
          <mxGeometry x="14" y="15" width="40" height="30" as="geometry" />
        </mxCell>
        <mxCell id="8HiVLzLvZXMp7pnqKMNH-23" value="2" style="rounded=1;whiteSpace=wrap;html=1;labelBackgroundColor=none;fillColor=#F2CC8F;strokeColor=#E07A5F;fontColor=#393C56;" vertex="1" parent="8HiVLzLvZXMp7pnqKMNH-20">
          <mxGeometry x="74" y="15" width="40" height="30" as="geometry" />
        </mxCell>
        <mxCell id="8HiVLzLvZXMp7pnqKMNH-24" value="3" style="rounded=1;whiteSpace=wrap;html=1;labelBackgroundColor=none;fillColor=#F2CC8F;strokeColor=#E07A5F;fontColor=#393C56;" vertex="1" parent="8HiVLzLvZXMp7pnqKMNH-20">
          <mxGeometry x="134" y="15" width="40" height="30" as="geometry" />
        </mxCell>
        <mxCell id="8HiVLzLvZXMp7pnqKMNH-25" value="" style="group" vertex="1" connectable="0" parent="1">
          <mxGeometry x="610" y="860" width="190" height="60" as="geometry" />
        </mxCell>
        <mxCell id="8HiVLzLvZXMp7pnqKMNH-26" value="" style="rounded=0;whiteSpace=wrap;html=1;strokeColor=#E07A5F;fontColor=#393C56;fillColor=#F2CC8F;" vertex="1" parent="8HiVLzLvZXMp7pnqKMNH-25">
          <mxGeometry width="190" height="60" as="geometry" />
        </mxCell>
        <mxCell id="8HiVLzLvZXMp7pnqKMNH-27" value="1" style="rounded=1;whiteSpace=wrap;html=1;labelBackgroundColor=none;fillColor=#F2CC8F;strokeColor=#E07A5F;fontColor=#393C56;" vertex="1" parent="8HiVLzLvZXMp7pnqKMNH-25">
          <mxGeometry x="14" y="15" width="40" height="30" as="geometry" />
        </mxCell>
        <mxCell id="8HiVLzLvZXMp7pnqKMNH-28" value="2" style="rounded=1;whiteSpace=wrap;html=1;labelBackgroundColor=none;fillColor=#F2CC8F;strokeColor=#E07A5F;fontColor=#393C56;" vertex="1" parent="8HiVLzLvZXMp7pnqKMNH-25">
          <mxGeometry x="74" y="15" width="40" height="30" as="geometry" />
        </mxCell>
        <mxCell id="8HiVLzLvZXMp7pnqKMNH-29" value="3" style="rounded=1;whiteSpace=wrap;html=1;labelBackgroundColor=none;fillColor=#F2CC8F;strokeColor=#E07A5F;fontColor=#393C56;" vertex="1" parent="8HiVLzLvZXMp7pnqKMNH-25">
          <mxGeometry x="134" y="15" width="40" height="30" as="geometry" />
        </mxCell>
        <mxCell id="8HiVLzLvZXMp7pnqKMNH-31" value="int numbers [3] [3]" style="rounded=1;whiteSpace=wrap;html=1;labelBackgroundColor=none;fillColor=#F2CC8F;strokeColor=#E07A5F;fontColor=#393C56;" vertex="1" parent="1">
          <mxGeometry x="400" y="780" width="120" height="40" as="geometry" />
        </mxCell>
      </root>
    </mxGraphModel>
  </diagram>
</mxfile>
